<?xml version="1.0" encoding="UTF-8" standalone="no"?><!DOCTYPE svg PUBLIC "-//W3C//DTD SVG 1.1//EN" "http://www.w3.org/Graphics/SVG/1.1/DTD/svg11.dtd"><svg width="100%" height="100%" viewBox="0 0 948 355" version="1.1" xmlns="http://www.w3.org/2000/svg" xmlns:xlink="http://www.w3.org/1999/xlink" xml:space="preserve" xmlns:serif="http://www.serif.com/" style="fill-rule:evenodd;clip-rule:evenodd;stroke-linejoin:round;stroke-miterlimit:2;"><path d="M948,-0l-948,-0l0,355l948,0l-0,-355Zm-12,12l-0,331c-0,-0 -924,-0 -924,-0c0,0 -0,-331 -0,-331c109.013,-0 924,-0 924,-0l0,-0Z" style="fill:#0083d5;"/><g transform="matrix(0.327699,0,0,0.327699,418.546,43.4894)"><g transform="matrix(76,0,0,76,789.063,386.424)"><path d="M0.249,-0.728c-0.138,0 -0.209,0.081 -0.209,0.198c-0,0.091 0.037,0.152 0.162,0.193c0.107,0.035 0.175,0.06 0.175,0.153c0,0.072 -0.051,0.126 -0.125,0.126c-0.104,0 -0.133,-0.055 -0.133,-0.156l0,-0.01l-0.088,0l0,0.004c0,0.168 0.065,0.234 0.216,0.234c0.133,0 0.222,-0.074 0.222,-0.212c0,-0.098 -0.042,-0.155 -0.17,-0.194c-0.104,-0.032 -0.167,-0.058 -0.167,-0.148c0,-0.072 0.04,-0.116 0.118,-0.116c0.074,0 0.111,0.042 0.111,0.123l0,0.004l0.088,0c-0.004,-0.137 -0.067,-0.199 -0.2,-0.199Z" style="fill:#373737;fill-rule:nonzero;"/></g><g transform="matrix(76,0,0,76,827.063,386.424)"><path d="M0.055,-0.536l0,0.394c0,0.111 0.046,0.156 0.14,0.156c0.053,0 0.107,-0.027 0.131,-0.077l0.002,0l0,0.063l0.08,0l0,-0.536l-0.084,0l0,0.373c0,0.06 -0.047,0.105 -0.106,0.105c-0.051,0 -0.079,-0.029 -0.079,-0.103l0,-0.375l-0.084,0Z" style="fill:#373737;fill-rule:nonzero;"/></g><g transform="matrix(76,0,0,76,862.251,386.424)"><path d="M0.206,-0.55c-0.103,0 -0.171,0.055 -0.171,0.149c0,0.059 0.019,0.095 0.056,0.119c0.019,0.013 0.054,0.026 0.103,0.041c0.077,0.023 0.104,0.052 0.104,0.1c-0,0.059 -0.04,0.089 -0.09,0.089c-0.066,0 -0.099,-0.038 -0.099,-0.124l-0.084,0l-0,0.006c-0,0.126 0.064,0.184 0.183,0.184c0.109,0 0.174,-0.063 0.174,-0.168c0,-0.106 -0.06,-0.131 -0.164,-0.161c-0.078,-0.022 -0.099,-0.048 -0.099,-0.087c0,-0.055 0.033,-0.082 0.087,-0.082c0.057,0 0.079,0.031 0.079,0.105l0.084,0l-0,-0.006c-0,-0.116 -0.055,-0.165 -0.163,-0.165Z" style="fill:#373737;fill-rule:nonzero;"/></g><g transform="matrix(76,0,0,76,893.183,386.424)"><path d="M0.253,-0.55c-0.054,0 -0.103,0.036 -0.116,0.08l-0.002,0l0,-0.066l-0.08,0l-0,0.712l0.084,0l0,-0.237l0.002,0c0.019,0.048 0.065,0.075 0.112,0.075c0.115,0 0.175,-0.122 0.175,-0.292c-0,-0.177 -0.059,-0.272 -0.175,-0.272Zm-0.119,0.281c0,-0.154 0.032,-0.209 0.108,-0.209c0.068,-0 0.098,0.061 0.098,0.201c0,0.158 -0.029,0.219 -0.098,0.219c-0.073,-0 -0.108,-0.065 -0.108,-0.211Z" style="fill:#373737;fill-rule:nonzero;"/></g><g transform="matrix(76,0,0,76,928.371,386.424)"><path d="M0.228,-0.55c-0.126,0 -0.191,0.089 -0.191,0.289c-0,0.19 0.057,0.275 0.187,0.275c0.131,0 0.179,-0.111 0.179,-0.19l-0.084,0c0,0.076 -0.031,0.124 -0.091,0.124c-0.067,0 -0.103,-0.047 -0.103,-0.188l0,-0.018l0.282,0l0,-0.047c0,-0.174 -0.061,-0.245 -0.179,-0.245Zm-0.1,0.226l-0,-0.013c-0,-0.086 0.033,-0.147 0.098,-0.147c0.056,0 0.093,0.039 0.093,0.137l-0,0.023l-0.191,0Z" style="fill:#373737;fill-rule:nonzero;"/></g><g transform="matrix(76,0,0,76,962.115,386.424)"><path d="M0.268,-0.55c-0.058,0 -0.11,0.032 -0.131,0.077l-0.002,0l0,-0.063l-0.08,0l-0,0.536l0.084,-0l0,-0.373c0,-0.06 0.049,-0.105 0.106,-0.105c0.055,-0 0.079,0.034 0.079,0.104l0,0.374l0.084,-0l0,-0.396c0,-0.11 -0.048,-0.154 -0.14,-0.154Z" style="fill:#373737;fill-rule:nonzero;"/></g><g transform="matrix(76,0,0,76,997.303,386.424)"><path d="M0.206,-0.55c-0.103,0 -0.171,0.055 -0.171,0.149c0,0.059 0.019,0.095 0.056,0.119c0.019,0.013 0.054,0.026 0.103,0.041c0.077,0.023 0.104,0.052 0.104,0.1c-0,0.059 -0.04,0.089 -0.09,0.089c-0.066,0 -0.099,-0.038 -0.099,-0.124l-0.084,0l-0,0.006c-0,0.126 0.064,0.184 0.183,0.184c0.109,0 0.174,-0.063 0.174,-0.168c0,-0.106 -0.06,-0.131 -0.164,-0.161c-0.078,-0.022 -0.099,-0.048 -0.099,-0.087c0,-0.055 0.033,-0.082 0.087,-0.082c0.057,0 0.079,0.031 0.079,0.105l0.084,0l-0,-0.006c-0,-0.116 -0.055,-0.165 -0.163,-0.165Z" style="fill:#373737;fill-rule:nonzero;"/></g><g transform="matrix(76,0,0,76,1028.24,386.424)"><path d="M0.06,-0.714l0,0.096l0.084,0l0,-0.096l-0.084,0Zm-0,0.178l-0,0.536l0.084,-0l0,-0.536l-0.084,0Z" style="fill:#373737;fill-rule:nonzero;"/></g><g transform="matrix(76,0,0,76,1043.74,386.424)"><path d="M0.222,-0.55c-0.131,0 -0.193,0.093 -0.193,0.282c0,0.192 0.064,0.282 0.193,0.282c0.128,-0 0.193,-0.089 0.193,-0.282c0,-0.192 -0.064,-0.282 -0.193,-0.282Zm-0.105,0.282c-0,-0.152 0.034,-0.216 0.103,-0.216c0.072,0 0.107,0.059 0.107,0.216c0,0.15 -0.033,0.216 -0.107,0.216c-0.066,0 -0.103,-0.056 -0.103,-0.216Z" style="fill:#373737;fill-rule:nonzero;"/></g><g transform="matrix(76,0,0,76,1077.48,386.424)"><path d="M0.268,-0.55c-0.058,0 -0.11,0.032 -0.131,0.077l-0.002,0l0,-0.063l-0.08,0l-0,0.536l0.084,-0l0,-0.373c0,-0.06 0.049,-0.105 0.106,-0.105c0.055,-0 0.079,0.034 0.079,0.104l0,0.374l0.084,-0l0,-0.396c0,-0.11 -0.048,-0.154 -0.14,-0.154Z" style="fill:#373737;fill-rule:nonzero;"/></g><g transform="matrix(76,0,0,76,1130.91,386.424)"><path d="M0.193,-0.722c-0.074,0 -0.113,0.041 -0.113,0.119l0,0.067l-0.078,0l-0,0.066l0.078,0l0,0.47l0.084,-0l0,-0.47l0.092,0l0,-0.066l-0.092,0l0,-0.063c0,-0.033 0.014,-0.051 0.053,-0.051l0.04,0l0,-0.072l-0.064,0Z" style="fill:#373737;fill-rule:nonzero;"/></g><g transform="matrix(76,0,0,76,1150.6,386.424)"><path d="M0.222,-0.55c-0.131,0 -0.193,0.093 -0.193,0.282c0,0.192 0.064,0.282 0.193,0.282c0.128,-0 0.193,-0.089 0.193,-0.282c0,-0.192 -0.064,-0.282 -0.193,-0.282Zm-0.105,0.282c-0,-0.152 0.034,-0.216 0.103,-0.216c0.072,0 0.107,0.059 0.107,0.216c0,0.15 -0.033,0.216 -0.107,0.216c-0.066,0 -0.103,-0.056 -0.103,-0.216Z" style="fill:#373737;fill-rule:nonzero;"/></g><g transform="matrix(76,0,0,76,1184.34,386.424)"><path d="M0.257,-0.55c-0.05,0 -0.087,0.03 -0.116,0.094l-0.002,0l0,-0.08l-0.084,0l-0,0.536l0.084,-0l0,-0.342c0,-0.071 0.055,-0.124 0.111,-0.124c0.014,0 0.03,0.001 0.044,0.004l0,-0.082c-0.008,-0.004 -0.021,-0.006 -0.037,-0.006Z" style="fill:#373737;fill-rule:nonzero;"/></g><g transform="matrix(76,0,0,76,789.063,455.78)"><rect x="0.058" y="-0.714" width="0.088" height="0.714" style="fill:#373737;fill-rule:nonzero;"/></g><g transform="matrix(76,0,0,76,804.567,455.78)"><path d="M0.268,-0.55c-0.058,0 -0.11,0.032 -0.131,0.077l-0.002,0l0,-0.063l-0.08,0l-0,0.536l0.084,-0l0,-0.373c0,-0.06 0.049,-0.105 0.106,-0.105c0.055,-0 0.079,0.034 0.079,0.104l0,0.374l0.084,-0l0,-0.396c0,-0.11 -0.048,-0.154 -0.14,-0.154Z" style="fill:#373737;fill-rule:nonzero;"/></g><g transform="matrix(76,0,0,76,839.755,455.78)"><path d="M0.08,-0.692l0,0.156l-0.078,0l-0,0.066l0.078,0l0,0.374c0,0.073 0.027,0.102 0.109,0.102c0.022,0 0.049,-0.002 0.067,-0.006l0,-0.069c-0.006,0.001 -0.019,0.003 -0.036,0.003c-0.042,0 -0.056,-0.014 -0.056,-0.057l0,-0.347l0.093,0l0,-0.066l-0.093,0l0,-0.156l-0.084,0Z" style="fill:#373737;fill-rule:nonzero;"/></g><g transform="matrix(76,0,0,76,859.439,455.78)"><path d="M0.228,-0.55c-0.126,0 -0.191,0.089 -0.191,0.289c-0,0.19 0.057,0.275 0.187,0.275c0.131,0 0.179,-0.111 0.179,-0.19l-0.084,0c0,0.076 -0.031,0.124 -0.091,0.124c-0.067,0 -0.103,-0.047 -0.103,-0.188l0,-0.018l0.282,0l0,-0.047c0,-0.174 -0.061,-0.245 -0.179,-0.245Zm-0.1,0.226l-0,-0.013c-0,-0.086 0.033,-0.147 0.098,-0.147c0.056,0 0.093,0.039 0.093,0.137l-0,0.023l-0.191,0Z" style="fill:#373737;fill-rule:nonzero;"/></g><g transform="matrix(76,0,0,76,893.183,455.78)"><path d="M0.257,-0.55c-0.05,0 -0.087,0.03 -0.116,0.094l-0.002,0l0,-0.08l-0.084,0l-0,0.536l0.084,-0l0,-0.342c0,-0.071 0.055,-0.124 0.111,-0.124c0.014,0 0.03,0.001 0.044,0.004l0,-0.082c-0.008,-0.004 -0.021,-0.006 -0.037,-0.006Z" style="fill:#373737;fill-rule:nonzero;"/></g><g transform="matrix(76,0,0,76,915.679,455.78)"><path d="M0.209,-0.55c-0.113,0 -0.174,0.098 -0.174,0.282c0,0.172 0.059,0.268 0.166,0.268c0.055,-0 0.103,-0.029 0.121,-0.072l0.002,0l0,0.081c0,0.091 -0.048,0.109 -0.103,0.109c-0.05,0 -0.083,-0.022 -0.087,-0.067l0,-0.001l-0.084,0c0.008,0.088 0.068,0.134 0.177,0.134c0.122,0 0.181,-0.079 0.181,-0.213l0,-0.507l-0.08,0l0,0.068l-0.002,0c-0.013,-0.048 -0.061,-0.082 -0.117,-0.082Zm-0.086,0.281c0,-0.146 0.029,-0.209 0.098,-0.209c0.074,-0 0.108,0.068 0.108,0.212c0,0.15 -0.04,0.194 -0.108,0.194c-0.065,0 -0.098,-0.062 -0.098,-0.197Z" style="fill:#373737;fill-rule:nonzero;"/></g><g transform="matrix(76,0,0,76,950.867,455.78)"><path d="M0.228,-0.55c-0.126,0 -0.191,0.089 -0.191,0.289c-0,0.19 0.057,0.275 0.187,0.275c0.131,0 0.179,-0.111 0.179,-0.19l-0.084,0c0,0.076 -0.031,0.124 -0.091,0.124c-0.067,0 -0.103,-0.047 -0.103,-0.188l0,-0.018l0.282,0l0,-0.047c0,-0.174 -0.061,-0.245 -0.179,-0.245Zm-0.1,0.226l-0,-0.013c-0,-0.086 0.033,-0.147 0.098,-0.147c0.056,0 0.093,0.039 0.093,0.137l-0,0.023l-0.191,0Z" style="fill:#373737;fill-rule:nonzero;"/></g><g transform="matrix(76,0,0,76,984.611,455.78)"><path d="M0.268,-0.55c-0.058,0 -0.11,0.032 -0.131,0.077l-0.002,0l0,-0.063l-0.08,0l-0,0.536l0.084,-0l0,-0.373c0,-0.06 0.049,-0.105 0.106,-0.105c0.055,-0 0.079,0.034 0.079,0.104l0,0.374l0.084,-0l0,-0.396c0,-0.11 -0.048,-0.154 -0.14,-0.154Z" style="fill:#373737;fill-rule:nonzero;"/></g><g transform="matrix(76,0,0,76,1019.8,455.78)"><path d="M0.228,-0.55c-0.126,0 -0.191,0.089 -0.191,0.289c-0,0.19 0.057,0.275 0.187,0.275c0.131,0 0.179,-0.111 0.179,-0.19l-0.084,0c0,0.076 -0.031,0.124 -0.091,0.124c-0.067,0 -0.103,-0.047 -0.103,-0.188l0,-0.018l0.282,0l0,-0.047c0,-0.174 -0.061,-0.245 -0.179,-0.245Zm-0.1,0.226l-0,-0.013c-0,-0.086 0.033,-0.147 0.098,-0.147c0.056,0 0.093,0.039 0.093,0.137l-0,0.023l-0.191,0Z" style="fill:#373737;fill-rule:nonzero;"/></g><g transform="matrix(76,0,0,76,1053.54,455.78)"><path d="M0.257,-0.55c-0.05,0 -0.087,0.03 -0.116,0.094l-0.002,0l0,-0.08l-0.084,0l-0,0.536l0.084,-0l0,-0.342c0,-0.071 0.055,-0.124 0.111,-0.124c0.014,0 0.03,0.001 0.044,0.004l0,-0.082c-0.008,-0.004 -0.021,-0.006 -0.037,-0.006Z" style="fill:#373737;fill-rule:nonzero;"/></g><g transform="matrix(76,0,0,76,1076.04,455.78)"><path d="M0.222,-0.55c-0.125,0 -0.18,0.054 -0.18,0.172l-0,0.004l0.084,0l0,-0.004c0,-0.069 0.031,-0.106 0.092,-0.106c0.054,0 0.086,0.026 0.086,0.081c0,0.046 -0.004,0.062 -0.061,0.079l-0.11,0.033c-0.073,0.022 -0.104,0.073 -0.104,0.149c0,0.1 0.051,0.156 0.145,0.156c0.053,-0 0.103,-0.03 0.13,-0.077l0.002,-0c0.003,0.045 0.017,0.069 0.07,0.069c0.014,-0 0.032,-0.001 0.055,-0.005l0,-0.06c-0.006,0.004 -0.009,0.005 -0.019,0.005c-0.02,-0 -0.027,-0.006 -0.027,-0.038l0,-0.321c0,-0.083 -0.042,-0.137 -0.163,-0.137Zm-0.105,0.406c0,-0.079 0.044,-0.092 0.122,-0.116c0.028,-0.009 0.052,-0.021 0.062,-0.032l0,0.14c0,0.051 -0.051,0.1 -0.108,0.1c-0.049,-0 -0.076,-0.027 -0.076,-0.092Z" style="fill:#373737;fill-rule:nonzero;"/></g><g transform="matrix(76,0,0,76,1110.54,455.78)"><path d="M0.08,-0.692l0,0.156l-0.078,0l-0,0.066l0.078,0l0,0.374c0,0.073 0.027,0.102 0.109,0.102c0.022,0 0.049,-0.002 0.067,-0.006l0,-0.069c-0.006,0.001 -0.019,0.003 -0.036,0.003c-0.042,0 -0.056,-0.014 -0.056,-0.057l0,-0.347l0.093,0l0,-0.066l-0.093,0l0,-0.156l-0.084,0Z" style="fill:#373737;fill-rule:nonzero;"/></g><g transform="matrix(76,0,0,76,1130.23,455.78)"><path d="M0.06,-0.714l0,0.096l0.084,0l0,-0.096l-0.084,0Zm-0,0.178l-0,0.536l0.084,-0l0,-0.536l-0.084,0Z" style="fill:#373737;fill-rule:nonzero;"/></g><g transform="matrix(76,0,0,76,1145.73,455.78)"><path d="M0.222,-0.55c-0.131,0 -0.193,0.093 -0.193,0.282c0,0.192 0.064,0.282 0.193,0.282c0.128,-0 0.193,-0.089 0.193,-0.282c0,-0.192 -0.064,-0.282 -0.193,-0.282Zm-0.105,0.282c-0,-0.152 0.034,-0.216 0.103,-0.216c0.072,0 0.107,0.059 0.107,0.216c0,0.15 -0.033,0.216 -0.107,0.216c-0.066,0 -0.103,-0.056 -0.103,-0.216Z" style="fill:#373737;fill-rule:nonzero;"/></g><g transform="matrix(76,0,0,76,1179.48,455.78)"><path d="M0.268,-0.55c-0.058,0 -0.11,0.032 -0.131,0.077l-0.002,0l0,-0.063l-0.08,0l-0,0.536l0.084,-0l0,-0.373c0,-0.06 0.049,-0.105 0.106,-0.105c0.055,-0 0.079,0.034 0.079,0.104l0,0.374l0.084,-0l0,-0.396c0,-0.11 -0.048,-0.154 -0.14,-0.154Z" style="fill:#373737;fill-rule:nonzero;"/></g><g transform="matrix(76,0,0,76,1214.66,455.78)"><path d="M0.222,-0.55c-0.125,0 -0.18,0.054 -0.18,0.172l-0,0.004l0.084,0l0,-0.004c0,-0.069 0.031,-0.106 0.092,-0.106c0.054,0 0.086,0.026 0.086,0.081c0,0.046 -0.004,0.062 -0.061,0.079l-0.11,0.033c-0.073,0.022 -0.104,0.073 -0.104,0.149c0,0.1 0.051,0.156 0.145,0.156c0.053,-0 0.103,-0.03 0.13,-0.077l0.002,-0c0.003,0.045 0.017,0.069 0.07,0.069c0.014,-0 0.032,-0.001 0.055,-0.005l0,-0.06c-0.006,0.004 -0.009,0.005 -0.019,0.005c-0.02,-0 -0.027,-0.006 -0.027,-0.038l0,-0.321c0,-0.083 -0.042,-0.137 -0.163,-0.137Zm-0.105,0.406c0,-0.079 0.044,-0.092 0.122,-0.116c0.028,-0.009 0.052,-0.021 0.062,-0.032l0,0.14c0,0.051 -0.051,0.1 -0.108,0.1c-0.049,-0 -0.076,-0.027 -0.076,-0.092Z" style="fill:#373737;fill-rule:nonzero;"/></g><g transform="matrix(76,0,0,76,1248.41,455.78)"><rect x="0.06" y="-0.714" width="0.084" height="0.714" style="fill:#373737;fill-rule:nonzero;"/></g><g transform="matrix(76,0,0,76,1282.15,455.78)"><rect x="0.058" y="-0.714" width="0.088" height="0.714" style="fill:#373737;fill-rule:nonzero;"/></g><g transform="matrix(76,0,0,76,1297.66,455.78)"><path d="M0.268,-0.55c-0.058,0 -0.11,0.032 -0.131,0.077l-0.002,0l0,-0.063l-0.08,0l-0,0.536l0.084,-0l0,-0.373c0,-0.06 0.049,-0.105 0.106,-0.105c0.055,-0 0.079,0.034 0.079,0.104l0,0.374l0.084,-0l0,-0.396c0,-0.11 -0.048,-0.154 -0.14,-0.154Z" style="fill:#373737;fill-rule:nonzero;"/></g><g transform="matrix(76,0,0,76,1332.84,455.78)"><path d="M0.06,-0.714l0,0.096l0.084,0l0,-0.096l-0.084,0Zm-0,0.178l-0,0.564c-0,0.037 -0.004,0.06 -0.013,0.07c-0.008,0.009 -0.022,0.014 -0.039,0.014c-0.01,-0 -0.022,-0.002 -0.031,-0.003l-0,0.072c0.005,-0 0.022,0.003 0.04,0.003c0.091,-0 0.127,-0.046 0.127,-0.128l0,-0.592l-0.084,-0Z" style="fill:#373737;fill-rule:nonzero;"/></g><g transform="matrix(76,0,0,76,1348.35,455.78)"><path d="M0.228,-0.55c-0.126,0 -0.191,0.089 -0.191,0.289c-0,0.19 0.057,0.275 0.187,0.275c0.131,0 0.179,-0.111 0.179,-0.19l-0.084,0c0,0.076 -0.031,0.124 -0.091,0.124c-0.067,0 -0.103,-0.047 -0.103,-0.188l0,-0.018l0.282,0l0,-0.047c0,-0.174 -0.061,-0.245 -0.179,-0.245Zm-0.1,0.226l-0,-0.013c-0,-0.086 0.033,-0.147 0.098,-0.147c0.056,0 0.093,0.039 0.093,0.137l-0,0.023l-0.191,0Z" style="fill:#373737;fill-rule:nonzero;"/></g><g transform="matrix(76,0,0,76,1382.09,455.78)"><path d="M0.223,-0.55c-0.128,0 -0.191,0.091 -0.191,0.289c0,0.195 0.06,0.275 0.186,0.275c0.109,0 0.173,-0.079 0.176,-0.2l-0.084,0c-0.001,0.09 -0.033,0.134 -0.088,0.134c-0.063,0 -0.102,-0.053 -0.102,-0.2c0,-0.165 0.029,-0.232 0.105,-0.232c0.053,0 0.085,0.042 0.085,0.111l0.084,0c-0.002,-0.11 -0.061,-0.177 -0.171,-0.177Z" style="fill:#373737;fill-rule:nonzero;"/></g><g transform="matrix(76,0,0,76,1414.47,455.78)"><path d="M0.08,-0.692l0,0.156l-0.078,0l-0,0.066l0.078,0l0,0.374c0,0.073 0.027,0.102 0.109,0.102c0.022,0 0.049,-0.002 0.067,-0.006l0,-0.069c-0.006,0.001 -0.019,0.003 -0.036,0.003c-0.042,0 -0.056,-0.014 -0.056,-0.057l0,-0.347l0.093,0l0,-0.066l-0.093,0l0,-0.156l-0.084,0Z" style="fill:#373737;fill-rule:nonzero;"/></g><g transform="matrix(76,0,0,76,1434.15,455.78)"><path d="M0.06,-0.714l0,0.096l0.084,0l0,-0.096l-0.084,0Zm-0,0.178l-0,0.536l0.084,-0l0,-0.536l-0.084,0Z" style="fill:#373737;fill-rule:nonzero;"/></g><g transform="matrix(76,0,0,76,1449.66,455.78)"><path d="M0.222,-0.55c-0.131,0 -0.193,0.093 -0.193,0.282c0,0.192 0.064,0.282 0.193,0.282c0.128,-0 0.193,-0.089 0.193,-0.282c0,-0.192 -0.064,-0.282 -0.193,-0.282Zm-0.105,0.282c-0,-0.152 0.034,-0.216 0.103,-0.216c0.072,0 0.107,0.059 0.107,0.216c0,0.15 -0.033,0.216 -0.107,0.216c-0.066,0 -0.103,-0.056 -0.103,-0.216Z" style="fill:#373737;fill-rule:nonzero;"/></g><g transform="matrix(76,0,0,76,1483.4,455.78)"><path d="M0.268,-0.55c-0.058,0 -0.11,0.032 -0.131,0.077l-0.002,0l0,-0.063l-0.08,0l-0,0.536l0.084,-0l0,-0.373c0,-0.06 0.049,-0.105 0.106,-0.105c0.055,-0 0.079,0.034 0.079,0.104l0,0.374l0.084,-0l0,-0.396c0,-0.11 -0.048,-0.154 -0.14,-0.154Z" style="fill:#373737;fill-rule:nonzero;"/></g></g><g transform="matrix(6.50846,0,0,6.50846,-707.588,-1853.18)"><g transform="matrix(11.6771,0,0,11.6771,117.243,303.729)"><path d="M0.646,-0.217c-0.068,0.068 -0.128,0.104 -0.217,0.104c-0.142,-0 -0.248,-0.099 -0.248,-0.247c-0,-0.141 0.11,-0.245 0.245,-0.245c0.084,0 0.155,0.036 0.22,0.105l0.096,-0.092c-0.079,-0.092 -0.194,-0.144 -0.313,-0.144c-0.206,0 -0.382,0.149 -0.382,0.376c0,0.221 0.155,0.378 0.38,0.378c0.135,-0 0.217,-0.045 0.312,-0.138l-0.093,-0.097Z" style="fill:#c12218;fill-rule:nonzero;"/></g><g transform="matrix(11.6771,0,0,11.6771,126.234,303.729)"><path d="M0.421,-0.736c-0.204,0 -0.374,0.163 -0.374,0.376c0,0.209 0.163,0.377 0.376,0.377c0.206,-0 0.371,-0.163 0.371,-0.374c0,-0.219 -0.175,-0.379 -0.373,-0.379Zm-0.001,0.131c0.137,0 0.236,0.115 0.236,0.247c0,0.137 -0.104,0.244 -0.234,0.244c-0.127,-0 -0.237,-0.097 -0.237,-0.243c-0,-0.148 0.106,-0.248 0.235,-0.248Z" style="fill:#c12218;fill-rule:nonzero;"/></g><g transform="matrix(11.6771,0,0,11.6771,135.751,303.729)"><path d="M0.282,-0l0.131,-0l0.259,-0.718l-0.14,0l-0.184,0.51l-0.18,-0.51l-0.141,0l0.255,0.718Z" style="fill:#c12218;fill-rule:nonzero;"/></g><g transform="matrix(11.6771,0,0,11.6771,143.925,303.729)"><rect x="0.072" y="-0.718" width="0.137" height="0.718" style="fill:#c12218;fill-rule:nonzero;"/></g><g transform="matrix(11.6771,0,0,11.6771,147.195,303.729)"><path d="M0.083,-0l0.175,-0c0.105,-0 0.19,-0.001 0.272,-0.065c0.077,-0.06 0.123,-0.162 0.123,-0.285c0,-0.114 -0.039,-0.214 -0.104,-0.277c-0.078,-0.076 -0.167,-0.091 -0.293,-0.091l-0.173,0l-0,0.718Zm0.193,-0.584c0.156,0 0.239,0.081 0.239,0.231c0,0.07 -0.02,0.128 -0.053,0.164c-0.042,0.045 -0.095,0.055 -0.17,0.055l-0.072,-0l-0,-0.45l0.056,0Z" style="fill:#c12218;fill-rule:nonzero;"/></g><g transform="matrix(11.6771,0,0,11.6771,155.369,303.729)"><rect x="0.086" y="-0.326" width="0.248" height="0.122" style="fill:#c12218;fill-rule:nonzero;"/></g><g transform="matrix(11.6771,0,0,11.6771,158.522,303.729)"><path d="M0.085,-0.588l0.148,0l0,0.588l0.137,-0l0,-0.718l-0.206,0l-0.079,0.13Z" style="fill:#c12218;fill-rule:nonzero;"/></g><g transform="matrix(11.6771,0,0,11.6771,163.543,303.729)"><path d="M0.455,-0.343c0.032,-0.062 0.056,-0.113 0.056,-0.164c0,-0.131 -0.102,-0.228 -0.227,-0.228c-0.119,0 -0.224,0.091 -0.224,0.223c-0,0.129 0.093,0.225 0.219,0.228l-0.125,0.244l0.116,0.058l0.185,-0.361Zm-0.168,-0.07c-0.058,0 -0.093,-0.046 -0.093,-0.097c-0,-0.057 0.043,-0.099 0.092,-0.099c0.047,0 0.091,0.041 0.091,0.099c0,0.054 -0.037,0.097 -0.09,0.097Z" style="fill:#c12218;fill-rule:nonzero;"/></g><g transform="matrix(11.6771,0,0,11.6771,171.6,303.729)"><path d="M0.027,-0l0.133,-0l0.079,-0.454l0.151,0.454l0.12,-0l0.153,-0.454l0.077,0.454l0.132,-0l-0.121,-0.718l-0.132,0l-0.168,0.501l-0.166,-0.501l-0.134,0l-0.124,0.718Z" style="fill:#c12218;fill-rule:nonzero;"/></g><g transform="matrix(11.6771,0,0,11.6771,181.759,303.729)"><path d="M0.46,-0l0.133,-0l0,-0.531l-0.133,0l0,0.058c-0.048,-0.048 -0.103,-0.072 -0.167,-0.072c-0.138,0 -0.25,0.114 -0.25,0.28c0,0.163 0.118,0.279 0.253,0.279c0.067,-0 0.117,-0.024 0.164,-0.07l0,0.056Zm-0.14,-0.423c0.084,0 0.146,0.063 0.146,0.156c0,0.097 -0.064,0.159 -0.146,0.159c-0.083,0 -0.143,-0.067 -0.143,-0.158c0,-0.087 0.055,-0.157 0.143,-0.157Z" style="fill:#c12218;fill-rule:nonzero;"/></g><g transform="matrix(11.6771,0,0,11.6771,189.349,303.729)"><path d="M0.083,-0.531l-0.068,0l0,0.114l0.068,0l0,0.417l0.133,0l-0,-0.417l0.079,0l-0,-0.114l-0.079,0l-0,-0.196l-0.133,0l-0,0.196Z" style="fill:#c12218;fill-rule:nonzero;"/></g><g transform="matrix(11.6771,0,0,11.6771,192.619,303.729)"><path d="M0.453,-0.156c-0.037,0.036 -0.075,0.052 -0.132,0.052c-0.076,-0 -0.136,-0.044 -0.149,-0.123l0.428,-0c0,-0.012 0.001,-0.018 0.001,-0.03c0,-0.168 -0.114,-0.288 -0.282,-0.288c-0.171,0 -0.276,0.134 -0.276,0.279c0,0.156 0.109,0.28 0.278,0.28c0.112,-0 0.187,-0.036 0.244,-0.117l-0.112,-0.053Zm-0.275,-0.176c0.026,-0.067 0.077,-0.1 0.143,-0.1c0.071,-0 0.128,0.038 0.146,0.1l-0.289,-0Z" style="fill:#c12218;fill-rule:nonzero;"/></g><g transform="matrix(11.6771,0,0,11.6771,199.859,303.729)"><path d="M0.151,-0.531l-0.115,0l0,0.531l0.133,-0l0,-0.215c0,-0.029 0,-0.062 0.001,-0.091c0.003,-0.078 0.033,-0.122 0.071,-0.122c0.014,0 0.029,0.006 0.039,0.011l0.041,-0.114c-0.013,-0.006 -0.03,-0.014 -0.058,-0.014c-0.044,0 -0.087,0.026 -0.112,0.081l0,-0.067Z" style="fill:#c12218;fill-rule:nonzero;"/></g><g transform="matrix(11.6771,0,0,11.6771,203.595,303.729)"><path d="M0.054,-0l0.133,-0l0,-0.531l-0.133,0l0,0.531Zm0.066,-0.75c-0.046,0 -0.085,0.035 -0.085,0.081c0,0.049 0.036,0.092 0.085,0.092c0.047,0 0.085,-0.038 0.085,-0.085c0,-0.048 -0.037,-0.088 -0.085,-0.088Z" style="fill:#c12218;fill-rule:nonzero;"/></g><g transform="matrix(11.6771,0,0,11.6771,206.164,303.729)"><path d="M0.46,-0l0.133,-0l0,-0.531l-0.133,0l0,0.058c-0.048,-0.048 -0.103,-0.072 -0.167,-0.072c-0.138,0 -0.25,0.114 -0.25,0.28c0,0.163 0.118,0.279 0.253,0.279c0.067,-0 0.117,-0.024 0.164,-0.07l0,0.056Zm-0.14,-0.423c0.084,0 0.146,0.063 0.146,0.156c0,0.097 -0.064,0.159 -0.146,0.159c-0.083,0 -0.143,-0.067 -0.143,-0.158c0,-0.087 0.055,-0.157 0.143,-0.157Z" style="fill:#c12218;fill-rule:nonzero;"/></g><g transform="matrix(11.6771,0,0,11.6771,213.638,303.729)"><rect x="0.054" y="-0.736" width="0.133" height="0.736" style="fill:#c12218;fill-rule:nonzero;"/></g><g transform="matrix(11.6771,0,0,11.6771,117.243,314.385)"><path d="M0.646,-0.217c-0.068,0.068 -0.128,0.104 -0.217,0.104c-0.142,-0 -0.248,-0.099 -0.248,-0.247c-0,-0.141 0.11,-0.245 0.245,-0.245c0.084,0 0.155,0.036 0.22,0.105l0.096,-0.092c-0.079,-0.092 -0.194,-0.144 -0.313,-0.144c-0.206,0 -0.382,0.149 -0.382,0.376c0,0.221 0.155,0.378 0.38,0.378c0.135,-0 0.217,-0.045 0.312,-0.138l-0.093,-0.097Z" style="fill:none;fill-rule:nonzero;"/></g><g transform="matrix(11.6771,0,0,11.6771,126.234,314.385)"><path d="M0.421,-0.736c-0.204,0 -0.374,0.163 -0.374,0.376c0,0.209 0.163,0.377 0.376,0.377c0.206,-0 0.371,-0.163 0.371,-0.374c0,-0.219 -0.175,-0.379 -0.373,-0.379Zm-0.001,0.131c0.137,0 0.236,0.115 0.236,0.247c0,0.137 -0.104,0.244 -0.234,0.244c-0.127,-0 -0.237,-0.097 -0.237,-0.243c-0,-0.148 0.106,-0.248 0.235,-0.248Z" style="fill:none;fill-rule:nonzero;"/></g><g transform="matrix(11.6771,0,0,11.6771,135.751,314.385)"><path d="M0.282,-0l0.131,-0l0.259,-0.718l-0.14,0l-0.184,0.51l-0.18,-0.51l-0.141,0l0.255,0.718Z" style="fill:none;fill-rule:nonzero;"/></g><g transform="matrix(11.6771,0,0,11.6771,143.925,314.385)"><rect x="0.072" y="-0.718" width="0.137" height="0.718" style="fill:none;fill-rule:nonzero;"/></g><g transform="matrix(11.6771,0,0,11.6771,147.195,314.385)"><path d="M0.083,-0l0.175,-0c0.105,-0 0.19,-0.001 0.272,-0.065c0.077,-0.06 0.123,-0.162 0.123,-0.285c0,-0.114 -0.039,-0.214 -0.104,-0.277c-0.078,-0.076 -0.167,-0.091 -0.293,-0.091l-0.173,0l-0,0.718Zm0.193,-0.584c0.156,0 0.239,0.081 0.239,0.231c0,0.07 -0.02,0.128 -0.053,0.164c-0.042,0.045 -0.095,0.055 -0.17,0.055l-0.072,-0l-0,-0.45l0.056,0Z" style="fill:none;fill-rule:nonzero;"/></g><g transform="matrix(11.6771,0,0,11.6771,155.369,314.385)"><rect x="0.086" y="-0.326" width="0.248" height="0.122" style="fill:none;fill-rule:nonzero;"/></g><g transform="matrix(11.6771,0,0,11.6771,158.522,314.385)"><path d="M0.085,-0.588l0.148,0l0,0.588l0.137,-0l0,-0.718l-0.206,0l-0.079,0.13Z" style="fill:none;fill-rule:nonzero;"/></g><g transform="matrix(11.6771,0,0,11.6771,163.543,314.385)"><path d="M0.455,-0.343c0.032,-0.062 0.056,-0.113 0.056,-0.164c0,-0.131 -0.102,-0.228 -0.227,-0.228c-0.119,0 -0.224,0.091 -0.224,0.223c-0,0.129 0.093,0.225 0.219,0.228l-0.125,0.244l0.116,0.058l0.185,-0.361Zm-0.168,-0.07c-0.058,0 -0.093,-0.046 -0.093,-0.097c-0,-0.057 0.043,-0.099 0.092,-0.099c0.047,0 0.091,0.041 0.091,0.099c0,0.054 -0.037,0.097 -0.09,0.097Z" style="fill:none;fill-rule:nonzero;"/></g><g transform="matrix(11.6771,0,0,11.6771,171.483,314.385)"><path d="M0.646,-0.217c-0.068,0.068 -0.128,0.104 -0.217,0.104c-0.142,-0 -0.248,-0.099 -0.248,-0.247c-0,-0.141 0.11,-0.245 0.245,-0.245c0.084,0 0.155,0.036 0.22,0.105l0.096,-0.092c-0.079,-0.092 -0.194,-0.144 -0.313,-0.144c-0.206,0 -0.382,0.149 -0.382,0.376c0,0.221 0.155,0.378 0.38,0.378c0.135,-0 0.217,-0.045 0.312,-0.138l-0.093,-0.097Z" style="fill:#c12218;fill-rule:nonzero;"/></g><g transform="matrix(11.6771,0,0,11.6771,180.007,314.385)"><path d="M0.068,-0.288c0,0.044 -0.002,0.069 0.005,0.112c0.021,0.124 0.1,0.189 0.228,0.189c0.074,0 0.129,-0.02 0.171,-0.067c0.056,-0.062 0.062,-0.134 0.062,-0.232l0,-0.245l-0.133,0l0,0.283c0,0.09 -0.029,0.139 -0.1,0.139c-0.07,-0 -0.1,-0.05 -0.1,-0.145l-0,-0.277l-0.133,0l-0,0.243Z" style="fill:#c12218;fill-rule:nonzero;"/></g><g transform="matrix(11.6771,0,0,11.6771,186.5,314.385)"><rect x="0.054" y="-0.736" width="0.133" height="0.736" style="fill:#c12218;fill-rule:nonzero;"/></g><g transform="matrix(11.6771,0,0,11.6771,189.337,314.385)"><path d="M0.083,-0.531l-0.068,0l0,0.114l0.068,0l0,0.417l0.133,0l-0,-0.417l0.079,0l-0,-0.114l-0.079,0l-0,-0.196l-0.133,0l-0,0.196Z" style="fill:#c12218;fill-rule:nonzero;"/></g><g transform="matrix(11.6771,0,0,11.6771,192.841,314.385)"><path d="M0.068,-0.288c0,0.044 -0.002,0.069 0.005,0.112c0.021,0.124 0.1,0.189 0.228,0.189c0.074,0 0.129,-0.02 0.171,-0.067c0.056,-0.062 0.062,-0.134 0.062,-0.232l0,-0.245l-0.133,0l0,0.283c0,0.09 -0.029,0.139 -0.1,0.139c-0.07,-0 -0.1,-0.05 -0.1,-0.145l-0,-0.277l-0.133,0l-0,0.243Z" style="fill:#c12218;fill-rule:nonzero;"/></g><g transform="matrix(11.6771,0,0,11.6771,199.859,314.385)"><path d="M0.151,-0.531l-0.115,0l0,0.531l0.133,-0l0,-0.215c0,-0.029 0,-0.062 0.001,-0.091c0.003,-0.078 0.033,-0.122 0.071,-0.122c0.014,0 0.029,0.006 0.039,0.011l0.041,-0.114c-0.013,-0.006 -0.03,-0.014 -0.058,-0.014c-0.044,0 -0.087,0.026 -0.112,0.081l0,-0.067Z" style="fill:#c12218;fill-rule:nonzero;"/></g><g transform="matrix(11.6771,0,0,11.6771,203.268,314.385)"><path d="M0.453,-0.156c-0.037,0.036 -0.075,0.052 -0.132,0.052c-0.076,-0 -0.136,-0.044 -0.149,-0.123l0.428,-0c0,-0.012 0.001,-0.018 0.001,-0.03c0,-0.168 -0.114,-0.288 -0.282,-0.288c-0.171,0 -0.276,0.134 -0.276,0.279c0,0.156 0.109,0.28 0.278,0.28c0.112,-0 0.187,-0.036 0.244,-0.117l-0.112,-0.053Zm-0.275,-0.176c0.026,-0.067 0.077,-0.1 0.143,-0.1c0.071,-0 0.128,0.038 0.146,0.1l-0.289,-0Z" style="fill:#c12218;fill-rule:nonzero;"/></g><g transform="matrix(11.6771,0,0,11.6771,117.243,325.041)"><path d="M0.646,-0.217c-0.068,0.068 -0.128,0.104 -0.217,0.104c-0.142,-0 -0.248,-0.099 -0.248,-0.247c-0,-0.141 0.11,-0.245 0.245,-0.245c0.084,0 0.155,0.036 0.22,0.105l0.096,-0.092c-0.079,-0.092 -0.194,-0.144 -0.313,-0.144c-0.206,0 -0.382,0.149 -0.382,0.376c0,0.221 0.155,0.378 0.38,0.378c0.135,-0 0.217,-0.045 0.312,-0.138l-0.093,-0.097Z" style="fill:none;fill-rule:nonzero;"/></g><g transform="matrix(11.6771,0,0,11.6771,126.234,325.041)"><path d="M0.421,-0.736c-0.204,0 -0.374,0.163 -0.374,0.376c0,0.209 0.163,0.377 0.376,0.377c0.206,-0 0.371,-0.163 0.371,-0.374c0,-0.219 -0.175,-0.379 -0.373,-0.379Zm-0.001,0.131c0.137,0 0.236,0.115 0.236,0.247c0,0.137 -0.104,0.244 -0.234,0.244c-0.127,-0 -0.237,-0.097 -0.237,-0.243c-0,-0.148 0.106,-0.248 0.235,-0.248Z" style="fill:none;fill-rule:nonzero;"/></g><g transform="matrix(11.6771,0,0,11.6771,135.751,325.041)"><path d="M0.282,-0l0.131,-0l0.259,-0.718l-0.14,0l-0.184,0.51l-0.18,-0.51l-0.141,0l0.255,0.718Z" style="fill:none;fill-rule:nonzero;"/></g><g transform="matrix(11.6771,0,0,11.6771,143.925,325.041)"><rect x="0.072" y="-0.718" width="0.137" height="0.718" style="fill:none;fill-rule:nonzero;"/></g><g transform="matrix(11.6771,0,0,11.6771,147.195,325.041)"><path d="M0.083,-0l0.175,-0c0.105,-0 0.19,-0.001 0.272,-0.065c0.077,-0.06 0.123,-0.162 0.123,-0.285c0,-0.114 -0.039,-0.214 -0.104,-0.277c-0.078,-0.076 -0.167,-0.091 -0.293,-0.091l-0.173,0l-0,0.718Zm0.193,-0.584c0.156,0 0.239,0.081 0.239,0.231c0,0.07 -0.02,0.128 -0.053,0.164c-0.042,0.045 -0.095,0.055 -0.17,0.055l-0.072,-0l-0,-0.45l0.056,0Z" style="fill:none;fill-rule:nonzero;"/></g><g transform="matrix(11.6771,0,0,11.6771,155.369,325.041)"><rect x="0.086" y="-0.326" width="0.248" height="0.122" style="fill:none;fill-rule:nonzero;"/></g><g transform="matrix(11.6771,0,0,11.6771,158.522,325.041)"><path d="M0.085,-0.588l0.148,0l0,0.588l0.137,-0l0,-0.718l-0.206,0l-0.079,0.13Z" style="fill:none;fill-rule:nonzero;"/></g><g transform="matrix(11.6771,0,0,11.6771,163.543,325.041)"><path d="M0.455,-0.343c0.032,-0.062 0.056,-0.113 0.056,-0.164c0,-0.131 -0.102,-0.228 -0.227,-0.228c-0.119,0 -0.224,0.091 -0.224,0.223c-0,0.129 0.093,0.225 0.219,0.228l-0.125,0.244l0.116,0.058l0.185,-0.361Zm-0.168,-0.07c-0.058,0 -0.093,-0.046 -0.093,-0.097c-0,-0.057 0.043,-0.099 0.092,-0.099c0.047,0 0.091,0.041 0.091,0.099c0,0.054 -0.037,0.097 -0.09,0.097Z" style="fill:none;fill-rule:nonzero;"/></g><g transform="matrix(11.6771,0,0,11.6771,171.6,325.041)"><path d="M0.027,-0l0.133,-0l0.079,-0.454l0.151,0.454l0.12,-0l0.153,-0.454l0.077,0.454l0.132,-0l-0.121,-0.718l-0.132,0l-0.168,0.501l-0.166,-0.501l-0.134,0l-0.124,0.718Z" style="fill:#c12218;fill-rule:nonzero;"/></g><g transform="matrix(11.6771,0,0,11.6771,181.409,325.041)"><path d="M0.068,-0.288c0,0.044 -0.002,0.069 0.005,0.112c0.021,0.124 0.1,0.189 0.228,0.189c0.074,0 0.129,-0.02 0.171,-0.067c0.056,-0.062 0.062,-0.134 0.062,-0.232l0,-0.245l-0.133,0l0,0.283c0,0.09 -0.029,0.139 -0.1,0.139c-0.07,-0 -0.1,-0.05 -0.1,-0.145l-0,-0.277l-0.133,0l-0,0.243Z" style="fill:#c12218;fill-rule:nonzero;"/></g><g transform="matrix(11.6771,0,0,11.6771,187.948,325.041)"><path d="M0.218,-0.207c0.037,0.019 0.059,0.036 0.059,0.059c0,0.024 -0.026,0.043 -0.059,0.043c-0.035,0 -0.08,-0.026 -0.111,-0.062l-0.082,0.09c0.046,0.06 0.109,0.091 0.186,0.091c0.116,0 0.191,-0.071 0.191,-0.166c0,-0.079 -0.047,-0.125 -0.135,-0.17l-0.049,-0.025c-0.029,-0.015 -0.048,-0.024 -0.048,-0.044c-0,-0.021 0.021,-0.032 0.048,-0.032c0.032,0 0.062,0.019 0.092,0.049l0.082,-0.083c-0.043,-0.057 -0.106,-0.088 -0.175,-0.088c-0.102,0 -0.172,0.07 -0.172,0.153c-0,0.067 0.043,0.119 0.128,0.162l0.045,0.023Z" style="fill:#c12218;fill-rule:nonzero;"/></g><g transform="matrix(11.6771,0,0,11.6771,192.619,325.041)"><path d="M0.453,-0.156c-0.037,0.036 -0.075,0.052 -0.132,0.052c-0.076,-0 -0.136,-0.044 -0.149,-0.123l0.428,-0c0,-0.012 0.001,-0.018 0.001,-0.03c0,-0.168 -0.114,-0.288 -0.282,-0.288c-0.171,0 -0.276,0.134 -0.276,0.279c0,0.156 0.109,0.28 0.278,0.28c0.112,-0 0.187,-0.036 0.244,-0.117l-0.112,-0.053Zm-0.275,-0.176c0.026,-0.067 0.077,-0.1 0.143,-0.1c0.071,-0 0.128,0.038 0.146,0.1l-0.289,-0Z" style="fill:#c12218;fill-rule:nonzero;"/></g><g transform="matrix(11.6771,0,0,11.6771,199.497,325.041)"><path d="M0.068,-0.288c0,0.044 -0.002,0.069 0.005,0.112c0.021,0.124 0.1,0.189 0.228,0.189c0.074,0 0.129,-0.02 0.171,-0.067c0.056,-0.062 0.062,-0.134 0.062,-0.232l0,-0.245l-0.133,0l0,0.283c0,0.09 -0.029,0.139 -0.1,0.139c-0.07,-0 -0.1,-0.05 -0.1,-0.145l-0,-0.277l-0.133,0l-0,0.243Z" style="fill:#c12218;fill-rule:nonzero;"/></g><g transform="matrix(11.6771,0,0,11.6771,205.802,325.041)"><path d="M0.541,-0.262c0,-0.109 0.048,-0.161 0.115,-0.161c0.06,0 0.091,0.043 0.091,0.13l0,0.293l0.133,0l0,-0.311c0,-0.07 -0.004,-0.128 -0.039,-0.172c-0.03,-0.038 -0.083,-0.062 -0.142,-0.062c-0.08,0 -0.129,0.033 -0.178,0.095c-0.033,-0.064 -0.089,-0.095 -0.155,-0.095c-0.063,0 -0.121,0.026 -0.166,0.075l0,-0.061l-0.133,0l0,0.531l0.133,0l0,-0.26c0,-0.109 0.048,-0.163 0.114,-0.163c0.074,0 0.094,0.063 0.094,0.166l0,0.257l0.133,0l0,-0.262Z" style="fill:#c12218;fill-rule:nonzero;"/></g></g></svg>